<svg width="15" height="15" viewBox="0 0 15 15" fill="none" xmlns="http://www.w3.org/2000/svg">
<path d="M6.1021 0H6.10405V0.000876468C7.78852 0.00137731 9.3138 0.702176 10.4176 1.83457C11.5195 2.96534 12.2021 4.52846 12.2032 6.25485H12.2041V6.25898V6.26399H12.2032C12.2026 6.95978 12.0913 7.6294 11.8866 8.25382C11.8523 8.35863 11.8164 8.45929 11.7795 8.55546V8.55633C11.603 9.0146 11.3748 9.44782 11.1024 9.84687L14.6525 13.1197L14.6547 13.1217L14.6738 13.14L14.6752 13.1414C14.8756 13.3371 14.9847 13.5992 14.9985 13.8651C15.012 14.128 14.9322 14.397 14.757 14.6127L14.7556 14.6147L14.7343 14.6401L14.73 14.6445L14.7122 14.6646L14.7102 14.6672C14.5192 14.8728 14.2642 14.9845 14.0046 14.9985C13.7486 15.0124 13.4862 14.9309 13.2757 14.7508L13.2739 14.7495L13.249 14.7275L13.2455 14.7245L9.61446 11.3772C9.50704 11.4548 9.39741 11.5286 9.28645 11.5982C9.13594 11.6927 8.98005 11.7817 8.82099 11.863C8.00324 12.2814 7.07916 12.5168 6.10222 12.5168V12.5177H6.10027V12.5168C4.41581 12.5163 2.89028 11.8155 1.78651 10.6831C0.68421 9.55237 0.00195314 7.98901 0.000854499 6.26312H0V6.25898V6.25698H0.000854499C0.00134278 4.52921 0.684576 2.96447 1.78859 1.83232C2.89101 0.702176 4.41495 0.00200336 6.09807 0.000876468V0H6.1021ZM6.10405 1.4036V1.40448H6.1021H6.09807V1.4036C4.79362 1.40448 3.61124 1.94826 2.75527 2.82586C1.89943 3.70345 1.36879 4.91749 1.36842 6.25711H1.36927V6.25911V6.26324H1.36842C1.36927 7.60123 1.89906 8.81339 2.75503 9.69161C3.61062 10.5696 4.79423 11.1139 6.10015 11.1141V11.1132H6.1021H6.10613V11.1141C7.41058 11.1132 8.59248 10.5697 9.44868 9.69186C10.3045 8.81426 10.8352 7.60061 10.8354 6.26111H10.8347V6.25911V6.25498H10.8354C10.8347 4.91699 10.3044 3.7042 9.44893 2.82623C8.59333 1.94826 7.41009 1.40398 6.10405 1.4036Z" fill="black" fill-opacity="0.5"/>
</svg>
